<svg width="186" height="186" viewBox="0 0 186 186" fill="none" xmlns="http://www.w3.org/2000/svg">
<path fill-rule="evenodd" clip-rule="evenodd" d="M90.8471 0.00876949C131.793 -0.528208 170.36 23.6306 182.599 62.7447C194.486 100.733 173.858 139.223 141.764 162.731C109.272 186.53 65.6135 195.909 32.9378 172.365C-0.108127 148.554 -6.77144 103.688 6.20768 65.058C18.7431 27.7486 51.5248 0.524458 90.8471 0.00876949Z" fill="#E5E5E5" fill-opacity="0.08"/>
<path d="M86.35 111.975C86.3495 108.854 87.1312 105.782 88.6237 103.041C90.1163 100.3 92.272 97.9769 94.8939 96.2837C97.5159 94.5905 100.52 93.5815 103.633 93.3488C106.745 93.1161 109.866 93.6672 112.711 94.9517C113.017 95.0898 113.284 95.3001 113.491 95.5644C113.698 95.8287 113.838 96.1393 113.898 96.4694C113.958 96.7995 113.938 97.1393 113.838 97.4597C113.738 97.7802 113.562 98.0716 113.325 98.309L103.809 107.825L109.175 113.191L118.691 103.675C118.928 103.437 119.22 103.26 119.54 103.159C119.861 103.059 120.201 103.037 120.532 103.097C120.863 103.157 121.174 103.297 121.439 103.504C121.703 103.711 121.914 103.979 122.052 104.285C123.501 107.488 124.016 111.035 123.538 114.518C123.061 118 121.61 121.277 119.352 123.972C117.095 126.667 114.123 128.67 110.778 129.751C107.433 130.831 103.851 130.946 100.443 130.081L74.0245 156.841C72.2123 158.697 69.7367 159.758 67.1423 159.79C64.5479 159.821 62.0473 158.821 60.1905 157.009C58.3337 155.197 57.2728 152.721 57.2413 150.127C57.2098 147.532 58.2102 145.031 60.0224 143.175L86.6903 115.544C86.4632 114.368 86.3492 113.173 86.35 111.975ZM105.025 97.45C102.804 97.4494 100.612 97.9581 98.6185 98.9371C96.6248 99.9162 94.8822 101.339 93.5247 103.097C92.1671 104.855 91.2308 106.901 90.7878 109.078C90.3447 111.254 90.4067 113.503 90.969 115.652C91.0584 115.996 91.0581 116.357 90.968 116.701C90.8779 117.044 90.701 117.359 90.4544 117.615L63.0104 146.059C61.967 147.128 61.3911 148.568 61.4094 150.062C61.4277 151.556 62.0387 152.981 63.1079 154.025C64.1772 155.068 65.6172 155.644 67.1111 155.626C68.605 155.608 70.0304 154.997 71.0739 153.927L98.356 126.288C98.6271 126.013 98.9697 125.819 99.3451 125.729C99.7205 125.638 100.114 125.653 100.481 125.774C102.905 126.573 105.496 126.719 107.995 126.198C110.493 125.677 112.81 124.507 114.712 122.805C116.615 121.103 118.035 118.931 118.83 116.506C119.626 114.081 119.768 111.489 119.243 108.991L110.644 117.594C110.255 117.983 109.727 118.202 109.177 118.202C108.627 118.202 108.099 117.983 107.71 117.594L99.4101 109.294C99.2168 109.101 99.0635 108.872 98.9589 108.62C98.8543 108.368 98.8005 108.098 98.8005 107.825C98.8005 107.552 98.8543 107.282 98.9589 107.03C99.0635 106.778 99.2168 106.549 99.4101 106.356L108.009 97.7571C107.027 97.5525 106.028 97.4496 105.025 97.45Z" fill="white"/>
<path d="M23.52 111.9V142.266C23.52 143.589 24.658 145.2 26.0592 145.2H56.6198C58.0172 145.2 59.4 143.589 59.4 142.266V111.9H23.52ZM41.4232 135.998C36.032 135.998 31.6611 131.864 31.6611 126.762C31.6611 121.66 36.032 117.525 41.4232 117.525C46.8144 117.525 51.1853 121.66 51.1853 126.762C51.1853 131.865 46.8144 135.998 41.4232 135.998ZM56.6198 102.9H26.0592C24.658 102.9 23.52 103.83 23.52 105.154V110.1H59.4V105.154C59.4 103.83 58.0172 102.9 56.6198 102.9ZM35.48 108.3H25.36V104.7H35.48V108.3ZM53.0943 108.048C51.9452 108.048 51.017 107.167 51.017 106.079C51.017 104.992 51.9452 104.111 53.0943 104.111C54.2434 104.111 55.1744 104.992 55.1744 106.079C55.1735 107.166 54.2434 108.048 53.0943 108.048Z" fill="white"/>
<path d="M150.312 68.625H133.625V63.0625H150.312V68.625Z" fill="white"/>
<path d="M161.438 90.875H144.75V85.3125H161.438V90.875Z" fill="white"/>
<path d="M155.875 79.75H139.188V74.1875H155.875V79.75Z" fill="white"/>
<path d="M125.29 68.625C125.27 66.2782 124.644 63.9764 123.473 61.9428C122.301 59.9092 120.624 58.213 118.603 57.0188L139.188 21.3438L134.376 18.5625L113.302 55.0692C110.716 54.4914 108.026 54.5713 105.479 55.3016C102.931 56.0319 100.608 57.3892 98.7203 59.2494C88.3073 69.2925 89.1139 92.7718 89.1528 93.7675C89.1816 94.4857 89.4872 95.1648 90.0057 95.6626C90.5242 96.1604 91.2153 96.4381 91.9341 96.4375H133.628C134.212 96.4375 134.78 96.2538 135.254 95.9125C135.728 95.5712 136.082 95.0895 136.266 94.5358C136.451 93.982 136.457 93.3842 136.283 92.827C136.108 92.2698 135.764 91.7815 135.297 91.4313C125.451 84.0443 125.29 68.7752 125.29 68.625ZM111.18 60.2729C113.406 60.2974 115.537 61.1791 117.13 62.7348C118.722 64.2904 119.653 66.4001 119.73 68.625C119.73 68.7307 119.735 69.2035 119.777 69.9294L103.368 62.6314C104.449 61.7401 105.696 61.0726 107.037 60.6677C108.378 60.2628 109.787 60.1286 111.18 60.2729ZM120.97 90.875C118.747 88.6114 117.33 85.6796 116.937 82.5312H111.375C111.574 85.4913 112.499 88.3568 114.067 90.875H107.885C106.741 87.2655 106.045 83.5292 105.812 79.75H100.25C100.429 83.5179 101.05 87.2517 102.1 90.875H94.6875C94.7737 85.7686 95.4941 74.4879 99.7021 67.087L120.653 76.4042C121.66 81.631 123.806 86.5718 126.939 90.875H120.97Z" fill="white"/>
<path d="M92.85 92.9069H99.4694C100.648 92.9071 101.792 92.5093 102.716 91.778C103.641 91.0467 104.291 90.0247 104.562 88.8776C104.832 87.7306 104.708 86.5257 104.208 85.4583C103.709 84.3908 102.863 83.5233 101.809 82.9964L70.8418 67.5128L39.8745 82.9964C38.8202 83.5233 37.9748 84.3908 37.4752 85.4583C36.9756 86.5257 36.8511 87.7306 37.1219 88.8776C37.3927 90.0247 38.0429 91.0467 38.9672 91.778C39.8914 92.5093 41.0355 92.9071 42.2141 92.9069H48.8335" stroke="white" stroke-width="2" stroke-linecap="round" stroke-linejoin="round"/>
<path d="M48.8335 89.521H92.85V113.222H48.8335V89.521Z" stroke="white" stroke-width="2" stroke-linecap="round" stroke-linejoin="round"/>
<path d="M70.8418 67.5128C70.8418 67.5128 77.6136 56.0177 77.6136 52.2763C77.6136 50.4803 76.9001 48.7579 75.6301 47.4879C74.3602 46.218 72.6378 45.5045 70.8418 45.5045C69.0458 45.5045 67.3234 46.218 66.0534 47.4879C64.7835 48.7579 64.07 50.4803 64.07 52.2763" stroke="white" stroke-width="2" stroke-linecap="round" stroke-linejoin="round"/>
</svg>
